
<svg xmlns="http://www.w3.org/2000/svg" version="1.1" xmlns:xlink="http://www.w3.org/1999/xlink" preserveAspectRatio="none" x="0px" y="0px" width="143px" height="25px" viewBox="0 0 143 25">
<defs>
<g id="Layer1_0_FILL">
<path fill="#FFFFFF" stroke="none" d="
M 67.3 10
Q 66.35 8.5 64.8 7.6 63.25 6.7 61.4 6.65 59.5306640625 6.69921875 58 7.55 57.975 7.585546875 57.95 7.6 56.4 8.5 55.5 10 54.6 11.55 54.55 13.45 54.6 15.35 55.5 16.9 56.4 18.4 57.95 19.3 57.975 19.314453125 58 19.3 59.5306640625 20.20078125 61.4 20.25 63.25 20.2 64.8 19.3 66.35 18.4 67.3 16.9 68.2 15.35 68.25 13.45 68.2 11.55 67.3 10
M 61.4 10
Q 62.85 10 63.7 10.95 64.6 11.9 64.6 13.45 64.6 15 63.7 15.95 62.85 16.9 61.4 16.9 59.95 16.9 59.05 15.95 58.15 15 58.15 13.45 58.15 11.9 59.05 10.95 59.95 10 61.4 10
M 52.45 5.65
L 52.45 2.55 48.9 2.55 48.9 5.65 52.45 5.65
M 42.4 8.4
Q 41.9 7.65 40.9 7.2 39.9 6.7 38.65 6.65 36.95 6.65 35.55 7.6 34.15 8.5 33.35 10.05 32.5 11.6 32.55 13.45 32.5 15.3 33.35 16.85 34.15 18.4 35.55 19.3 36.95 20.25 38.65 20.25 39.9 20.2 40.9 19.7 41.9 19.25 42.4 18.5
L 42.4 19.95 45.95 19.95 45.95 2.45 42.4 2.45 42.4 8.4
M 42.7 13.45
Q 42.65 15 41.75 16 40.9 16.95 39.4 17 37.9 16.95 37 16 36.15 15 36.1 13.45 36.15 11.9 37 10.9 37.9 9.95 39.4 9.9 40.9 9.95 41.75 10.9 42.65 11.9 42.7 13.45
M 52.5 6.95
L 48.9 6.95 48.9 19.95 52.5 19.95 52.5 6.95
M 26.85 13.3
Q 26.85 15.1 26.15 16.05 25.45 17 24.2 17 23.05 17 22.5 16.2 22 15.45 22 13.9
L 22 6.95 18.4 6.95 18.4 14.5
Q 18.4 17.15 19.7 18.7 20.95 20.2 23.3 20.25 24.5 20.25 25.4 19.75 26.3 19.3 26.85 18.5
L 26.85 19.95 30.4 19.95 30.4 6.95 26.85 6.95 26.85 13.3
M 95.5 10.05
Q 94.7 8.5 93.3 7.6 91.9 6.65 90.2 6.65 88.95 6.7 87.95 7.2 86.95 7.65 86.45 8.4
L 86.45 6.95 82.85 6.95 82.85 24.05 86.45 24.05 86.45 18.5
Q 86.95 19.25 87.95 19.7 88.95 20.2 90.2 20.25 91.9 20.25 93.3 19.3 94.7 18.4 95.5 16.85 96.3 15.3 96.3 13.45 96.3 11.6 95.5 10.05
M 87.05 10.9
Q 87.95 9.95 89.4 9.9 90.9 9.95 91.8 10.9 92.65 11.9 92.7 13.45 92.65 15 91.8 16 90.9 16.95 89.4 17 87.95 16.95 87.05 16 86.15 15 86.15 13.45 86.15 11.9 87.05 10.9
M 138.1 7.55
Q 136.55 6.65 134.55 6.65 132.6 6.65 131.05 7.55 129.5 8.45 128.65 9.95 127.75 11.45 127.75 13.4 127.75 15.4 128.65 16.95 129.5 18.5 131.05 19.35 132.55 20.25 134.55 20.25 135.75 20.25 136.85 19.9 137.9 19.6 138.8 19 140.6 17.7 141.2 15.7
L 137.5 15.7
Q 137.15 16.35 136.4 16.75 135.65 17.15 134.7 17.15 133.15 17.1 132.25 16.35 131.35 15.55 131.2 14.3
L 141.35 14.3
Q 141.4 11.9 140.55 10.15 139.65 8.45 138.1 7.55
M 136.3 10.1
Q 137.1 10.7 137.45 11.95
L 131.35 11.95
Q 131.6 10.85 132.45 10.2 133.25 9.55 134.45 9.55 135.5 9.55 136.3 10.1
M 125.35 9.15
Q 124.45 8 123.05 7.35 121.7 6.65 119.95 6.65 118 6.7 116.45 7.6 114.9 8.5 114.05 10 113.15 11.55 113.15 13.45 113.15 15.35 114.05 16.9 114.9 18.4 116.45 19.3 118 20.2 119.95 20.25 121.7 20.25 123.05 19.55 124.45 18.9 125.35 17.75 126.25 16.55 126.6 15
L 122.95 15
Q 122.55 15.95 121.8 16.45 121.05 17 119.95 17 118.5 17 117.65 16.05 116.75 15.1 116.7 13.45 116.75 11.8 117.65 10.85 118.5 9.9 119.95 9.9 121.05 9.9 121.8 10.45 122.55 10.95 122.95 11.9
L 126.6 11.9
Q 126.25 10.35 125.35 9.15
M 111 6.95
L 107.45 6.95 107.45 8.4
Q 106.95 7.65 105.95 7.2 104.95 6.7 103.7 6.65 102 6.65 100.6 7.6 99.2 8.5 98.4 10.05 97.55 11.6 97.6 13.45 97.55 15.3 98.4 16.85 99.2 18.4 100.6 19.3 102 20.25 103.7 20.25 104.95 20.2 105.95 19.7 106.95 19.25 107.45 18.5
L 107.45 19.95 111 19.95 111 6.95
M 102.05 10.9
Q 102.95 9.95 104.45 9.9 105.95 9.95 106.8 10.9 107.7 11.9 107.75 13.45 107.7 15 106.8 16 105.95 16.95 104.45 17 102.95 16.95 102.05 16 101.2 15 101.15 13.45 101.2 11.9 102.05 10.9
M 74.95 6.65
Q 72.55 6.7 71.15 7.7 69.75 8.75 69.75 10.5 69.75 12 70.6 13.05 71.4 14.1 73.05 14.55
L 75.5 15.15
Q 76.35 15.4 76.75 15.7 77.15 16 77.15 16.45 77.15 16.95 76.7 17.25 76.3 17.5 75.45 17.5 74.5 17.5 73.9 17.1 73.3 16.65 73.15 15.8
L 69.45 15.8
Q 69.55 17.1 70.3 18.1 71.05 19.1 72.35 19.65 73.65 20.25 75.35 20.25 76.5 20.25 77.5 20 78.5 19.7 79.25 19.2 80 18.65 80.4 17.9 80.75 17.2 80.75 16.3 80.8 14.75 79.9 13.7 79 12.7 77.15 12.25
L 74.85 11.6
Q 74.15 11.45 73.8 11.2 73.4 10.9 73.4 10.45 73.4 9.95 73.8 9.7 74.2 9.45 74.9 9.45 75.55 9.45 76.05 9.75 76.5 10.05 76.65 10.75
L 80.25 10.75
Q 80.1 9.5 79.4 8.55 78.75 7.65 77.6 7.15 76.45 6.65 74.95 6.65
M 12.05 8.4
Q 11.55 7.65 10.55 7.2 9.55 6.7 8.3 6.65 6.6 6.65 5.2 7.6 3.8 8.5 3 10.05 2.15 11.6 2.2 13.45 2.15 15.3 3 16.85 3.8 18.4 5.2 19.3 6.6 20.25 8.3 20.25 9.55 20.2 10.55 19.7 11.55 19.25 12.05 18.5
L 12.05 19.95 15.6 19.95 15.6 6.95 12.05 6.95 12.05 8.4
M 6.65 10.9
Q 7.55 9.95 9.05 9.9 10.55 9.95 11.4 10.9 12.3 11.9 12.35 13.45 12.3 15 11.4 16 10.55 16.95 9.05 17 7.55 16.95 6.65 16 5.8 15 5.75 13.45 5.8 11.9 6.65 10.9 Z"/>
</g>
</defs>

<g transform="matrix( 1, 0, 0, 1, 0,0) ">
<use xlink:href="#Layer1_0_FILL"/>
</g>
</svg>
